<?xml version="1.0" standalone="no"?>
<!DOCTYPE svg PUBLIC "-//W3C//DTD SVG 20010904//EN"
 "http://www.w3.org/TR/2001/REC-SVG-20010904/DTD/svg10.dtd">
<svg version="1.0" xmlns="http://www.w3.org/2000/svg"
 width="625.000000pt" height="625.000000pt" viewBox="0 0 625.000000 625.000000"
 preserveAspectRatio="xMidYMid meet">
<metadata>
Created by potrace 1.11, written by Peter Selinger 2001-2013
</metadata>
<g transform="translate(0.000000,625.000000) scale(0.100000,-0.100000)"
fill="#000000" stroke="none">
<path d="M2838 6229 c-409 -36 -833 -164 -1190 -358 -263 -143 -475 -299 -687
-506 -284 -277 -470 -534 -640 -885 -319 -662 -394 -1389 -214 -2103 201 -804
707 -1486 1418 -1914 358 -215 767 -357 1215 -420 173 -24 584 -24 760 0 384
54 705 152 1030 318 765 389 1331 1072 1574 1902 88 298 120 530 120 872 0
278 -11 394 -60 632 -274 1337 -1408 2348 -2759 2463 -136 11 -437 11 -567 -1z
m-444 -212 l9 -48 83 7 c45 4 94 4 108 0 61 -15 85 -121 45 -202 -19 -41 -146
-171 -156 -160 -3 2 -9 23 -14 46 -10 42 -9 43 46 101 41 43 55 65 55 87 0 17
-6 32 -12 34 -7 3 -58 -4 -112 -14 -54 -11 -102 -15 -106 -11 -8 9 -40 155
-40 183 0 20 20 29 60 27 22 -2 26 -9 34 -50z m706 -22 c0 -56 -19 -95 -61
-128 l-32 -25 53 -71 c29 -40 51 -73 49 -75 -2 -2 -27 -6 -56 -9 l-52 -6 -51
68 c-71 96 -76 99 -90 57 -6 -21 -9 -54 -5 -80 l7 -44 -44 -4 c-23 -3 -47 -2
-52 3 -4 4 -7 39 -4 78 3 61 8 75 36 111 l33 40 -40 52 c-23 28 -41 55 -41 59
0 5 26 9 58 9 l58 0 48 -65 c27 -35 53 -62 59 -58 15 9 37 70 37 103 0 29 2
30 45 30 l45 0 0 -45z m262 34 c37 -8 63 -22 87 -46 l34 -34 -5 -139 c-2 -77
-6 -141 -9 -143 -2 -2 -24 -2 -47 1 l-44 4 7 112 c9 142 6 146 -125 154 -87 5
-91 6 -86 26 3 12 6 33 6 49 0 27 1 27 65 27 35 0 88 -5 117 -11z m321 -44
c25 -5 28 -9 22 -32 -18 -75 -18 -83 2 -83 21 0 53 30 73 68 10 21 16 23 48
17 53 -10 54 -12 32 -54 -39 -78 -77 -103 -170 -113 -19 -2 -26 -10 -28 -30
-3 -25 0 -27 42 -33 26 -4 59 -2 79 4 43 15 107 82 141 149 l25 50 38 -9 c21
-5 41 -9 45 -9 21 0 -57 -136 -111 -193 -46 -50 -105 -84 -157 -93 -41 -6
-201 19 -215 34 -4 4 9 72 27 152 19 80 37 155 40 168 3 16 10 22 22 18 9 -2
30 -7 45 -11z m-1456 -100 c19 -13 63 -119 63 -151 0 -15 -71 -37 -81 -26 -4
4 -12 24 -19 46 -12 36 -14 38 -45 33 -30 -5 -33 -3 -44 33 -16 52 -14 57 17
68 40 15 85 14 109 -3z m1976 -66 c17 -36 17 -38 -9 -107 l-26 -71 -36 15
c-48 20 -48 19 -34 57 18 50 15 66 -13 73 -29 7 -30 11 -9 63 l16 40 46 -17
c36 -13 51 -26 65 -53z m231 -67 c141 -66 190 -126 167 -204 -13 -40 -109
-228 -117 -228 -5 0 -66 30 -73 36 -2 2 17 43 43 93 70 136 66 148 -71 214
-46 22 -83 43 -83 48 0 16 34 79 43 79 5 0 46 -17 91 -38z m-2804 -34 c13 -24
24 -44 26 -46 1 -2 29 10 63 27 77 40 141 42 176 7 32 -32 49 -94 41 -148 -7
-46 -82 -189 -103 -196 -7 -2 -21 15 -32 37 l-21 40 32 51 c39 63 45 133 12
138 -11 2 -58 -17 -105 -42 -46 -25 -87 -46 -91 -46 -8 0 -98 163 -98 178 0
12 46 41 66 42 6 0 21 -19 34 -42z m2681 -79 c22 -11 39 -23 37 -27 -24 -52
-90 -172 -94 -172 -5 0 -66 30 -73 36 -4 4 81 183 87 184 1 0 21 -9 43 -21z
m-1011 -109 c471 -37 893 -196 1269 -478 479 -359 818 -904 920 -1477 71 -399
48 -810 -65 -1170 -71 -227 -165 -423 -298 -623 -381 -574 -977 -950 -1671
-1054 -138 -20 -540 -17 -685 5 -421 66 -808 236 -1145 504 -117 94 -303 282
-396 403 -264 340 -436 756 -490 1185 -18 143 -15 472 5 625 52 387 215 791
444 1099 426 574 1050 923 1756 981 134 11 216 11 356 0z m-1764 -19 c45 -27
74 -94 74 -167 -1 -61 -28 -155 -46 -161 -6 -2 -23 12 -37 30 -25 33 -25 35
-11 84 12 41 12 56 2 89 -7 21 -20 40 -28 42 -9 1 -58 -29 -109 -67 l-94 -71
-28 38 c-33 44 -33 43 70 119 115 86 152 97 207 64z m3404 -97 c28 -42 50 -82
50 -88 0 -6 -14 -26 -31 -44 -26 -29 -31 -31 -45 -18 -21 22 -32 14 -98 -68
l-59 -74 -34 25 c-19 14 -32 30 -31 34 2 5 28 40 58 79 38 49 64 73 83 77 32
6 32 7 10 43 -16 28 -16 30 12 69 15 23 29 41 32 41 2 0 26 -34 53 -76z m218
-168 c116 -110 123 -199 23 -289 -47 -42 -92 -67 -121 -67 -55 0 -152 70 -212
153 l-20 29 32 33 33 34 59 -63 c85 -93 131 -102 181 -34 30 40 16 73 -60 146
l-66 63 33 34 c38 39 34 41 118 -39z m-3667 -71 l89 -120 -32 -27 c-18 -16
-35 -28 -38 -28 -7 0 -194 250 -189 253 2 2 17 13 33 25 16 13 33 21 38 20 5
-2 49 -57 99 -123z m-257 28 c64 -45 106 -107 106 -156 0 -54 -26 -96 -108
-175 l-65 -63 -36 35 -35 36 64 64 c35 36 68 74 72 86 11 30 -7 67 -43 89 -39
24 -72 15 -118 -33 -29 -30 -30 -34 -16 -46 14 -11 20 -11 37 -1 18 11 24 10
41 -8 l21 -21 -29 -30 c-46 -48 -87 -42 -152 21 -29 28 -53 56 -53 63 0 18
130 147 164 162 43 20 102 11 150 -23z m4185 -248 c88 -107 103 -188 44 -246
-32 -32 -185 -149 -194 -149 -4 0 -18 15 -33 34 l-26 34 90 66 c82 60 90 69
90 99 0 34 -12 57 -67 121 -18 22 -33 43 -33 47 0 11 63 49 77 46 6 -1 30 -24
52 -52z m-4516 -16 c20 -11 181 -134 216 -165 11 -10 9 -17 -10 -43 -12 -17
-28 -31 -34 -31 -6 0 -52 32 -101 70 -49 39 -94 70 -101 70 -6 0 -19 -10 -27
-22 l-15 -21 -36 27 c-40 31 -41 37 -19 72 31 46 85 65 127 43z m-152 -173
c42 -29 69 -79 69 -128 l0 -34 96 4 c80 4 95 2 89 -9 -5 -8 -19 -30 -31 -50
l-23 -36 -100 -7 c-56 -4 -101 -11 -101 -14 1 -15 37 -51 78 -76 23 -14 42
-30 42 -34 0 -4 -9 -22 -20 -40 l-20 -33 -41 23 c-55 31 -97 80 -105 123 l-6
35 -75 0 -74 0 26 49 27 48 80 6 c45 4 83 9 86 11 13 13 -13 59 -47 84 l-38
28 21 37 c11 20 23 37 26 37 3 0 22 -11 41 -24z m4874 -126 c15 -32 16 -42 5
-55 -7 -9 -11 -17 -9 -18 2 -1 17 -9 33 -17 35 -18 72 -74 81 -122 8 -40 -9
-80 -47 -114 -21 -20 -207 -124 -221 -124 -5 0 -78 130 -90 162 -5 14 3 23 35
39 l41 21 19 -23 c10 -13 21 -34 24 -46 8 -29 16 -29 75 4 59 32 71 62 42 101
-26 35 -61 38 -161 13 -111 -29 -118 -28 -142 18 l-20 39 93 22 c50 11 99 23
109 26 9 3 35 29 58 59 23 30 46 55 50 55 4 0 15 -18 25 -40z m-4943 -344 c60
-25 112 -47 114 -49 8 -8 -27 -77 -39 -77 -7 0 -51 16 -97 35 -46 19 -94 35
-106 35 -32 0 -61 -42 -85 -121 l-20 -67 -46 16 c-44 17 -45 18 -40 54 8 60
67 169 106 195 49 33 88 29 213 -21z m5163 -102 c79 -189 77 -277 -5 -323 -40
-23 -203 -81 -226 -81 -14 0 -38 65 -30 79 4 5 43 22 89 36 152 49 153 54 79
242 l-21 52 42 15 c57 20 55 20 72 -20z m-147 -47 c17 -49 15 -55 -20 -66 -18
-5 -61 -19 -96 -30 l-63 -19 -8 21 c-25 68 -29 63 66 95 48 17 93 31 98 31 6
1 16 -14 23 -32z m-5163 -197 c44 -11 91 -22 104 -25 21 -5 22 -10 16 -43 -3
-20 -10 -41 -14 -45 -4 -4 -55 5 -113 20 -94 24 -108 26 -123 13 -26 -21 -41
-64 -56 -152 -7 -43 -18 -78 -23 -78 -6 0 -28 5 -48 11 -45 12 -46 19 -19 129
45 188 89 216 276 170z m-25 -264 l85 -23 -3 -34 c-1 -19 -7 -38 -12 -43 -9
-9 -187 30 -195 44 -8 13 16 80 28 80 7 -1 50 -11 97 -24z m5422 -106 c52 -15
105 -77 113 -133 8 -53 2 -79 -32 -129 -61 -90 -215 -87 -271 4 -46 74 -41
147 15 209 48 53 103 69 175 49z m-5476 -305 c46 -27 84 -90 84 -141 0 -36
-30 -103 -56 -126 -111 -98 -283 -23 -284 124 -1 134 138 212 256 143z m5508
-256 c21 -6 57 -28 79 -49 38 -35 41 -42 45 -101 8 -137 -74 -221 -202 -205
-120 14 -193 91 -182 191 8 69 43 134 86 156 39 21 114 25 174 8z m-5407 -307
c49 -27 91 -131 79 -196 -7 -38 -50 -96 -70 -96 -7 0 -22 17 -33 38 -21 37
-21 37 -2 61 24 29 24 52 1 81 -29 36 -127 26 -174 -17 -37 -33 -11 -103 38
-103 31 0 35 -10 28 -62 l-6 -45 -40 7 c-82 15 -119 65 -126 168 -4 55 -1 66
22 97 60 79 199 111 283 67z m5262 -91 c17 -16 31 -38 31 -49 0 -21 0 -21 43
-2 23 10 65 21 94 25 l52 7 -14 -50 c-7 -28 -15 -55 -19 -60 -3 -5 -34 -15
-68 -21 -63 -12 -108 -33 -108 -50 0 -5 32 -17 70 -26 39 -9 72 -20 73 -24 2
-3 -3 -28 -11 -55 -13 -45 -16 -48 -40 -42 -58 13 -322 92 -327 98 -4 4 8 59
25 122 37 134 55 156 125 156 33 0 50 -6 74 -29z m-5089 -343 c11 -24 20 -51
20 -60 0 -18 -278 -270 -290 -263 -4 2 -15 25 -24 50 l-18 46 25 19 25 20 -21
55 c-21 52 -24 55 -57 55 -33 0 -36 3 -52 47 -9 26 -16 49 -14 50 2 2 81 7
177 12 96 4 182 9 192 10 12 1 24 -13 37 -41z m4989 -26 c43 -16 91 -42 115
-63 39 -35 41 -39 41 -95 0 -111 -65 -194 -150 -194 -30 0 -255 79 -274 96 -7
6 32 94 43 94 6 0 60 -20 120 -44 103 -42 125 -46 154 -23 16 13 15 72 -2 86
-7 6 -62 31 -122 54 -118 47 -116 45 -88 112 l14 35 38 -16 c20 -9 70 -28 111
-42z m-4854 -278 c58 -106 66 -148 34 -188 -25 -31 -74 -56 -113 -56 -32 0
-82 43 -106 91 l-20 38 -59 -34 c-44 -24 -62 -30 -69 -22 -20 25 -43 79 -37
85 13 13 300 171 312 171 6 1 32 -38 58 -85z m4690 -88 c81 -34 145 -113 145
-177 0 -36 -43 -120 -79 -153 -43 -41 -128 -48 -189 -17 -95 49 -146 136 -123
212 36 121 141 178 246 135z m-4535 -188 c128 -88 134 -237 11 -319 -92 -60
-176 -58 -237 6 -68 72 -81 149 -39 220 22 38 89 92 135 108 37 13 98 6 130
-15z m4138 -217 c12 -11 22 -23 22 -28 0 -5 -25 -33 -55 -63 -30 -30 -55 -59
-55 -66 0 -6 8 -18 19 -28 17 -16 21 -14 74 46 l56 63 27 -27 28 -27 -54 -61
-53 -62 25 -24 24 -25 63 66 c62 64 63 65 86 47 13 -9 26 -23 29 -30 3 -7 -38
-59 -91 -116 l-97 -104 -30 25 c-16 13 -78 71 -138 127 l-109 103 96 101 c54
56 100 102 104 102 3 -1 16 -9 29 -19z m-3875 -105 c37 -41 79 -88 93 -106
l27 -32 -27 -26 -28 -27 -62 68 c-60 66 -63 67 -79 49 -9 -10 -17 -22 -17 -25
0 -4 23 -32 50 -62 28 -30 50 -59 50 -64 0 -5 -12 -17 -27 -26 l-27 -18 -54
59 c-43 47 -56 56 -69 48 -40 -25 -39 -42 3 -86 82 -88 81 -85 54 -113 -13
-14 -28 -25 -34 -25 -14 0 -191 197 -191 212 0 10 254 247 266 248 3 0 36 -33
72 -74z m3686 -201 c89 -61 134 -172 97 -243 -17 -33 -160 -156 -175 -150 -20
7 -233 280 -225 288 36 33 135 110 159 124 40 22 96 15 144 -19z m-3482 -7
c18 -18 33 -36 33 -41 0 -5 -50 -66 -112 -135 -61 -70 -115 -131 -119 -136 -4
-5 -26 9 -48 30 l-40 39 122 137 c67 76 124 138 127 138 2 0 19 -14 37 -32z
m200 -156 c57 -40 96 -75 103 -92 30 -71 -34 -149 -114 -140 -15 1 -17 -3 -12
-24 6 -23 -9 -155 -19 -164 -2 -2 -24 10 -49 28 -50 34 -50 36 -37 130 8 51 0
90 -17 90 -6 0 -50 -60 -83 -112 -6 -10 -89 40 -89 54 0 7 136 211 189 284 19
25 10 29 128 -54z m2799 -131 c63 -29 124 -129 124 -203 0 -102 -132 -198
-232 -169 -83 25 -148 119 -148 217 0 72 38 120 124 156 53 22 82 22 132 -1z
m-2466 -61 c29 -15 40 -27 40 -43 0 -42 -39 -360 -45 -365 -3 -3 -26 4 -51 16
-44 22 -46 24 -40 56 6 32 5 34 -43 55 -61 26 -60 26 -87 0 l-22 -20 -43 21
c-24 13 -46 24 -49 27 -9 8 265 273 283 273 10 0 36 -9 57 -20z m2000 -35 c0
-41 -20 -55 -79 -55 -30 0 -41 -4 -41 -15 0 -8 -9 -15 -20 -15 -16 0 -20 7
-20 30 0 35 23 50 74 50 25 0 38 6 46 20 18 33 40 25 40 -15z m124 -207 c65
-78 120 -146 122 -152 2 -6 -19 -20 -48 -30 l-52 -18 -21 26 -21 26 -62 -22
c-58 -22 -62 -25 -62 -54 0 -28 -5 -34 -40 -48 -75 -30 -74 -31 -67 106 4 66
7 156 7 198 l0 76 48 16 c26 9 54 17 63 17 8 1 68 -63 133 -141z m-1569 48
c39 -30 50 -47 60 -93 l7 -33 -50 0 c-45 0 -50 2 -56 25 -8 31 -45 50 -80 41
-32 -8 -55 -51 -63 -115 -5 -41 -2 -52 16 -70 30 -30 65 -27 93 8 l23 29 42
-27 42 -27 -18 -30 c-40 -66 -144 -81 -230 -33 -56 31 -76 71 -75 149 0 82 40
163 94 192 51 28 147 20 195 -16z m1145 -34 c45 -23 81 -95 87 -176 5 -72 -15
-119 -64 -152 -35 -23 -211 -60 -223 -47 -5 4 -21 88 -37 185 l-30 178 36 6
c20 3 54 9 76 14 67 13 118 11 155 -8z m-770 -17 c16 -8 39 -29 52 -47 20 -28
23 -45 23 -118 0 -135 -45 -191 -158 -198 -121 -8 -188 49 -195 165 -7 104 38
190 112 213 40 12 129 4 166 -15z m417 -20 c52 -36 50 -137 -3 -172 -24 -16
-25 -16 -6 -37 18 -20 82 -130 82 -141 0 -3 -27 -5 -60 -5 l-60 0 -29 53 c-42
75 -60 97 -78 97 -14 0 -15 -10 -10 -75 l7 -75 -54 0 -53 0 -7 77 c-3 42 -6
125 -6 185 l0 108 128 0 c97 0 133 -4 149 -15z"/>
<path d="M4295 4756 c-121 -24 -185 -84 -193 -180 -3 -39 1 -65 18 -104 19
-45 21 -55 10 -88 -12 -35 -11 -39 13 -58 14 -12 32 -38 41 -59 8 -20 22 -40
31 -43 9 -4 40 3 70 14 44 17 56 18 64 8 22 -27 -19 -55 -119 -83 -174 -47
-201 -70 -198 -173 2 -73 -20 -121 -91 -202 l-39 -43 -78 0 c-96 1 -105 5
-268 129 -161 123 -198 139 -391 176 -267 51 -604 141 -622 166 -18 25 -16 55
7 121 11 32 20 79 20 105 0 41 -3 48 -19 48 -29 0 -138 -126 -174 -201 -18
-37 -41 -70 -51 -75 -17 -8 -96 -134 -96 -153 0 -5 27 -23 60 -40 33 -18 60
-34 60 -36 0 -2 -4 -15 -10 -30 -12 -31 -36 -19 300 -150 415 -163 749 -342
950 -510 124 -104 117 -90 123 -245 10 -267 82 -555 229 -910 81 -198 112
-285 123 -353 5 -32 11 -39 36 -44 16 -3 29 -9 29 -13 0 -15 -100 -100 -154
-130 -31 -18 -61 -40 -66 -50 -14 -25 -13 -63 2 -78 25 -25 284 -4 358 30 26
12 63 20 88 19 37 -2 48 3 78 33 46 46 45 77 -6 144 -24 32 -47 80 -59 120
-11 37 -42 148 -71 247 -75 265 -127 423 -161 496 l-31 64 12 135 c16 184 32
256 84 369 24 53 47 112 51 131 13 65 47 82 122 61 17 -5 33 -7 36 -5 2 3 0
24 -6 48 -18 81 -3 127 78 235 78 104 139 165 158 158 7 -2 38 -50 69 -106 83
-149 145 -237 213 -307 83 -84 112 -98 197 -92 48 4 73 1 85 -8 10 -7 28 -14
40 -14 26 0 36 37 31 110 l-3 45 -103 5 c-125 6 -127 7 -194 161 -86 196 -148
384 -148 447 0 78 -35 148 -103 204 -66 54 -81 71 -117 133 -34 57 -36 76 -14
111 20 30 12 127 -15 189 -46 103 -153 149 -286 121z"/>
<path d="M1400 4389 c0 -34 15 -52 92 -108 70 -52 85 -68 171 -192 l39 -56
-28 -42 c-24 -36 -28 -53 -31 -134 -1 -51 2 -122 8 -159 10 -53 9 -73 -1 -99
-13 -29 -12 -33 9 -50 25 -21 75 -25 114 -10 20 8 29 6 44 -11 29 -33 22 -175
-12 -241 -27 -53 -30 -86 -15 -168 35 -182 31 -280 -12 -327 -91 -97 -358
-142 -513 -86 -137 49 -135 48 -147 36 -9 -9 -4 -23 21 -57 18 -25 31 -51 29
-58 -3 -6 -49 -23 -104 -37 -70 -18 -99 -29 -99 -40 0 -11 15 -16 63 -18 34
-2 62 -6 62 -11 0 -4 -28 -16 -62 -28 -71 -23 -85 -48 -28 -48 19 1 50 4 68 9
42 10 43 -9 2 -55 -62 -71 -23 -81 52 -14 71 64 80 61 53 -16 -15 -42 -9 -69
13 -55 6 3 25 38 43 77 18 38 47 82 64 98 30 26 37 28 216 40 255 17 388 44
414 85 20 31 49 191 70 388 6 55 8 57 42 69 81 26 246 -11 408 -92 96 -49 97
-51 105 -181 4 -71 13 -128 24 -153 23 -54 79 -110 135 -134 31 -13 57 -35 79
-65 46 -63 91 -163 98 -217 l6 -46 -88 -37 c-49 -21 -165 -63 -259 -95 -411
-141 -433 -166 -273 -322 25 -24 38 -48 43 -75 11 -70 11 -70 154 -90 21 -4
47 -19 72 -45 42 -43 75 -59 119 -59 72 0 77 24 19 87 -65 71 -60 78 121 138
181 61 330 126 440 191 89 53 178 127 189 157 9 25 -11 143 -38 220 -37 106
-112 243 -216 392 -34 50 -81 131 -104 179 -62 134 -144 249 -255 360 -89 89
-133 126 -289 240 -21 15 -47 48 -59 72 -21 47 -64 86 -108 99 -14 5 -56 7
-95 7 -61 -2 -77 2 -121 27 l-51 30 -6 69 c-5 63 -51 223 -78 273 -15 30 -69
59 -109 60 -53 1 -64 9 -118 79 -27 36 -86 98 -131 139 -77 69 -84 73 -118 68
-32 -6 -41 -2 -75 28 -44 40 -58 44 -58 14z"/>
<path d="M5811 2894 c-26 -33 -27 -58 -2 -83 21 -21 80 -41 122 -41 53 0 89
71 57 112 -17 20 -72 38 -119 38 -29 0 -42 -6 -58 -26z"/>
<path d="M5705 2506 c-21 -49 -19 -53 16 -61 40 -9 51 3 47 51 -2 32 -7 40
-26 42 -18 3 -26 -4 -37 -32z"/>
<path d="M575 2222 c-27 -2 -53 -7 -58 -11 -4 -4 -2 -22 4 -39 l11 -32 26 20
c57 41 77 59 72 62 -3 2 -27 2 -55 0z"/>
<path d="M766 1915 c-10 -8 -24 -16 -30 -18 -20 -7 23 -57 49 -57 32 0 46 26
33 62 -11 31 -24 34 -52 13z"/>
<path d="M5425 1775 c-14 -13 -25 -35 -25 -48 0 -45 81 -107 140 -107 29 0 60
35 60 70 0 33 -26 62 -82 91 -49 25 -64 24 -93 -6z"/>
<path d="M910 1603 c-56 -37 -80 -67 -80 -98 0 -81 98 -87 169 -11 65 69 -11
162 -89 109z"/>
<path d="M4832 1093 c-18 -9 -32 -20 -32 -25 0 -5 27 -43 61 -84 60 -73 60
-74 85 -58 47 32 39 89 -23 145 -39 36 -55 40 -91 22z"/>
<path d="M1600 930 l-21 -30 33 -20 c38 -23 49 -25 66 -8 20 20 14 46 -17 67
-16 12 -31 21 -34 21 -3 0 -15 -13 -27 -30z"/>
<path d="M4364 792 c-6 -4 -16 -17 -23 -30 -16 -30 3 -94 40 -133 49 -53 119
-30 119 40 0 39 -33 107 -59 121 -23 12 -61 13 -77 2z"/>
<path d="M1916 678 l-37 -43 22 -17 c36 -30 46 -22 54 38 4 31 5 58 2 60 -3 3
-21 -14 -41 -38z"/>
<path d="M3993 539 c3 -28 8 -53 11 -56 7 -7 66 7 66 16 0 13 -62 91 -72 91
-6 0 -8 -19 -5 -51z"/>
<path d="M3580 503 c0 -10 7 -53 15 -96 8 -43 15 -81 15 -83 0 -10 48 -2 68
12 25 17 29 55 12 116 -14 50 -34 68 -76 68 -26 0 -34 -4 -34 -17z"/>
<path d="M2813 495 c-13 -9 -25 -34 -32 -63 -17 -81 7 -132 64 -132 43 0 67
29 73 89 6 67 -2 95 -33 109 -34 16 -46 15 -72 -3z"/>
<path d="M3200 459 l0 -42 41 6 c37 5 58 19 59 39 0 18 -35 38 -66 38 -33 0
-34 -1 -34 -41z"/>
</g>
</svg>
